<?xml version="1.0" encoding="utf-8"?>
<!-- Generator: Adobe Illustrator 24.0.1, SVG Export Plug-In . SVG Version: 6.00 Build 0)  -->
<svg version="1.1" xmlns="http://www.w3.org/2000/svg" xmlns:xlink="http://www.w3.org/1999/xlink" x="0px" y="0px"
	 viewBox="0 0 750 500" style="enable-background:new 0 0 750 500;" xml:space="preserve">
<style type="text/css">
	.st0{fill:url(#SVGID_1_);}
	.st1{opacity:0.1;fill:#FAC1FA;}
	.st2{fill:#F0D8F0;}
	.st3{fill:#FAC1FA;}
	.st4{fill:#384262;}
	.st5{fill:url(#SVGID_2_);}
	.st6{fill:url(#SVGID_3_);}
	.st7{opacity:0.1;fill:url(#SVGID_4_);}
	.st8{fill:url(#SVGID_5_);}
	.st9{display:none;fill:#FFFFFF;}
	.st10{font-family:'Raleway-Light';}
	.st11{font-size:31.722px;}
	.st12{letter-spacing:6;}
	.st13{fill:none;}
	.st14{display:none;}
	.st15{display:inline;fill:#FFFFFF;}
	.st16{font-size:8.8059px;}
	.st17{letter-spacing:1;}
	.st18{display:inline;fill:none;stroke:#FFFFFF;stroke-width:0.5504;stroke-miterlimit:10;}
	.st19{font-size:14.2064px;}
	.st20{display:inline;}
	.st21{fill:#FFFFFF;}
	.st22{font-family:'BebasNeue';}
	.st23{font-size:29.8213px;}
	.st24{letter-spacing:5;}
	.st25{opacity:0.1;fill:url(#SVGID_6_);}
	.st26{opacity:0.1;fill:url(#SVGID_7_);}
	.st27{opacity:0.1;fill:url(#SVGID_8_);}
	.st28{opacity:0.1;fill:url(#SVGID_9_);}
	.st29{opacity:0.1;fill:url(#SVGID_10_);}
	.st30{opacity:0.1;fill:url(#SVGID_11_);}
	.st31{opacity:0.1;fill:url(#SVGID_12_);}
	.st32{opacity:0.1;fill:url(#SVGID_13_);}
	.st33{opacity:0.1;fill:url(#SVGID_14_);}
	.st34{opacity:0.1;fill:url(#SVGID_15_);}
	.st35{fill:url(#SVGID_16_);}
	.st36{opacity:0.3;}
	.st37{fill:url(#SVGID_17_);}
	.st38{fill:url(#SVGID_18_);}
	.st39{fill:url(#SVGID_19_);}
	.st40{fill:#1D262D;}
</style>
<g id="background">
	<linearGradient id="SVGID_1_" gradientUnits="userSpaceOnUse" x1="375" y1="381.105" x2="375" y2="-2.5545">
		<stop  offset="0" style="stop-color:#E6B2E7"/>
		<stop  offset="1" style="stop-color:#7E99BB"/>
	</linearGradient>
	<rect class="st0" width="750" height="500"/>
</g>
<g id="objects">
	<g>
		
			<ellipse transform="matrix(0.224 -0.9746 0.9746 0.224 14.059 568.1114)" class="st1" cx="363.79" cy="275.23" rx="59.47" ry="59.47"/>
		
			<ellipse transform="matrix(0.225 -0.9744 0.9744 0.225 13.7708 567.767)" class="st1" cx="363.79" cy="275.23" rx="49.29" ry="49.29"/>
		<circle class="st1" cx="363.79" cy="275.23" r="36.51"/>
		<circle class="st2" cx="363.79" cy="275.23" r="28.35"/>
	</g>
	<g>
		<circle class="st1" cx="42.03" cy="21.77" r="2.22"/>
		<circle class="st1" cx="42.03" cy="21.77" r="1.84"/>
		<circle class="st1" cx="42.03" cy="21.77" r="1.36"/>
		<circle class="st3" cx="42.03" cy="21.77" r="0.38"/>
	</g>
	<g>
		<path class="st1" d="M108.57,46.35c0,1.23-0.99,2.22-2.22,2.22s-2.22-0.99-2.22-2.22c0-1.23,0.99-2.22,2.22-2.22
			S108.57,45.12,108.57,46.35z"/>
		<path class="st1" d="M108.19,46.35c0,1.02-0.82,1.84-1.84,1.84s-1.84-0.82-1.84-1.84c0-1.02,0.82-1.84,1.84-1.84
			S108.19,45.33,108.19,46.35z"/>
		<circle class="st1" cx="106.35" cy="46.35" r="1.36"/>
		<path class="st3" d="M106.73,46.35c0,0.21-0.17,0.38-0.38,0.38s-0.38-0.17-0.38-0.38c0-0.21,0.17-0.38,0.38-0.38
			S106.73,46.14,106.73,46.35z"/>
	</g>
	<g>
		<path class="st1" d="M91.5,62.3c0,1.23-0.99,2.22-2.22,2.22s-2.22-0.99-2.22-2.22s0.99-2.22,2.22-2.22S91.5,61.07,91.5,62.3z"/>
		<circle class="st1" cx="89.28" cy="62.3" r="1.84"/>
		<circle class="st1" cx="89.28" cy="62.3" r="1.36"/>
		<circle class="st3" cx="89.28" cy="62.3" r="0.38"/>
	</g>
	<g>
		<path class="st1" d="M113.01,124.06c0,1.23-0.99,2.22-2.22,2.22c-1.23,0-2.22-0.99-2.22-2.22c0-1.23,0.99-2.22,2.22-2.22
			C112.02,121.84,113.01,122.83,113.01,124.06z"/>
		<path class="st1" d="M112.63,124.06c0,1.02-0.82,1.84-1.84,1.84c-1.02,0-1.84-0.82-1.84-1.84c0-1.02,0.82-1.84,1.84-1.84
			C111.81,122.22,112.63,123.04,112.63,124.06z"/>
		<circle class="st1" cx="110.79" cy="124.06" r="1.36"/>
		<circle class="st3" cx="110.79" cy="124.06" r="0.38"/>
	</g>
	<g>
		<path class="st1" d="M196.88,106.19c0,1.23-0.99,2.22-2.22,2.22s-2.22-0.99-2.22-2.22s0.99-2.22,2.22-2.22
			S196.88,104.96,196.88,106.19z"/>
		<circle class="st1" cx="194.66" cy="106.19" r="1.84"/>
		<circle class="st1" cx="194.66" cy="106.19" r="1.36"/>
		<circle class="st3" cx="194.66" cy="106.19" r="0.38"/>
	</g>
	<g>
		<circle class="st1" cx="219.45" cy="75.46" r="2.22"/>
		<circle class="st1" cx="219.45" cy="75.46" r="1.84"/>
		<circle class="st1" cx="219.45" cy="75.46" r="1.36"/>
		<circle class="st3" cx="219.45" cy="75.46" r="0.38"/>
	</g>
	<g>
		<path class="st1" d="M177.33,148.64c0,1.23-0.99,2.22-2.22,2.22s-2.22-0.99-2.22-2.22c0-1.23,0.99-2.22,2.22-2.22
			S177.33,147.41,177.33,148.64z"/>
		<circle class="st1" cx="175.1" cy="148.64" r="1.84"/>
		<circle class="st1" cx="175.1" cy="148.64" r="1.36"/>
		<circle class="st3" cx="175.1" cy="148.64" r="0.38"/>
	</g>
	<g>
		<path class="st1" d="M159.88,103.97c0,1.23-0.99,2.22-2.22,2.22s-2.22-0.99-2.22-2.22c0-1.23,0.99-2.22,2.22-2.22
			S159.88,102.74,159.88,103.97z"/>
		<path class="st1" d="M159.5,103.97c0,1.02-0.82,1.84-1.84,1.84c-1.02,0-1.84-0.82-1.84-1.84c0-1.02,0.82-1.84,1.84-1.84
			C158.67,102.12,159.5,102.95,159.5,103.97z"/>
		<circle class="st1" cx="157.66" cy="103.97" r="1.36"/>
		<circle class="st3" cx="157.66" cy="103.97" r="0.38"/>
	</g>
	<g>
		<path class="st1" d="M46.48,121.84c0,1.23-0.99,2.22-2.22,2.22s-2.22-0.99-2.22-2.22s0.99-2.22,2.22-2.22
			S46.48,120.61,46.48,121.84z"/>
		<circle class="st1" cx="44.26" cy="121.84" r="1.84"/>
		<circle class="st1" cx="44.26" cy="121.84" r="1.36"/>
		<circle class="st3" cx="44.26" cy="121.84" r="0.38"/>
	</g>
	<g>
		<path class="st1" d="M582.91,169.04c0,1.23-0.99,2.22-2.22,2.22c-1.23,0-2.22-0.99-2.22-2.22s0.99-2.22,2.22-2.22
			C581.91,166.82,582.91,167.81,582.91,169.04z"/>
		<circle class="st1" cx="580.69" cy="169.04" r="1.84"/>
		<circle class="st1" cx="580.69" cy="169.04" r="1.36"/>
		<circle class="st3" cx="580.69" cy="169.04" r="0.38"/>
	</g>
	<g>
		<path class="st1" d="M527.89,81.92c0,1.23-0.99,2.22-2.22,2.22c-1.23,0-2.22-0.99-2.22-2.22s0.99-2.22,2.22-2.22
			C526.9,79.7,527.89,80.69,527.89,81.92z"/>
		<path class="st1" d="M527.51,81.92c0,1.02-0.82,1.84-1.84,1.84c-1.02,0-1.84-0.82-1.84-1.84c0-1.02,0.82-1.84,1.84-1.84
			C526.69,80.08,527.51,80.9,527.51,81.92z"/>
		<circle class="st1" cx="525.67" cy="81.92" r="1.36"/>
		<circle class="st3" cx="525.67" cy="81.92" r="0.38"/>
	</g>
	<g>
		<path class="st1" d="M511.31,97.83c0,1.23-0.99,2.22-2.22,2.22c-1.23,0-2.22-0.99-2.22-2.22s0.99-2.22,2.22-2.22
			C510.31,95.61,511.31,96.6,511.31,97.83z"/>
		<path class="st1" d="M510.93,97.83c0,1.02-0.82,1.84-1.84,1.84c-1.02,0-1.84-0.82-1.84-1.84c0-1.02,0.82-1.84,1.84-1.84
			C510.1,95.99,510.93,96.81,510.93,97.83z"/>
		<circle class="st1" cx="509.09" cy="97.83" r="1.36"/>
		<path class="st3" d="M509.46,97.83c0,0.21-0.17,0.38-0.38,0.38s-0.38-0.17-0.38-0.38s0.17-0.38,0.38-0.38
			S509.46,97.62,509.46,97.83z"/>
	</g>
	<g>
		<path class="st1" d="M655.91,25.66c0,1.23-0.99,2.22-2.22,2.22s-2.22-0.99-2.22-2.22s0.99-2.22,2.22-2.22
			S655.91,24.44,655.91,25.66z"/>
		<circle class="st1" cx="653.69" cy="25.66" r="1.84"/>
		<circle class="st1" cx="653.69" cy="25.66" r="1.36"/>
		<circle class="st3" cx="653.69" cy="25.66" r="0.38"/>
	</g>
	<g>
		<circle class="st1" cx="636.62" cy="41.62" r="2.22"/>
		<circle class="st1" cx="636.62" cy="41.62" r="1.84"/>
		<circle class="st1" cx="636.62" cy="41.62" r="1.36"/>
		<path class="st3" d="M637,41.62c0,0.21-0.17,0.38-0.38,0.38c-0.21,0-0.38-0.17-0.38-0.38s0.17-0.38,0.38-0.38
			C636.83,41.24,637,41.41,637,41.62z"/>
	</g>
	<g>
		<path class="st1" d="M660.36,103.38c0,1.23-0.99,2.22-2.22,2.22c-1.23,0-2.22-0.99-2.22-2.22c0-1.23,0.99-2.22,2.22-2.22
			C659.36,101.16,660.36,102.15,660.36,103.38z"/>
		<path class="st1" d="M659.98,103.38c0,1.02-0.82,1.84-1.84,1.84c-1.02,0-1.84-0.82-1.84-1.84c0-1.02,0.82-1.84,1.84-1.84
			C659.15,101.54,659.98,102.36,659.98,103.38z"/>
		<path class="st1" d="M659.5,103.38c0,0.75-0.61,1.36-1.36,1.36c-0.75,0-1.36-0.61-1.36-1.36c0-0.75,0.61-1.36,1.36-1.36
			C658.89,102.02,659.5,102.63,659.5,103.38z"/>
		<path class="st3" d="M658.51,103.38c0,0.21-0.17,0.38-0.38,0.38c-0.21,0-0.38-0.17-0.38-0.38s0.17-0.38,0.38-0.38
			C658.34,103,658.51,103.17,658.51,103.38z"/>
	</g>
	<g>
		<path class="st1" d="M744.23,85.51c0,1.23-0.99,2.22-2.22,2.22s-2.22-0.99-2.22-2.22s0.99-2.22,2.22-2.22
			S744.23,84.28,744.23,85.51z"/>
		<circle class="st1" cx="742" cy="85.51" r="1.84"/>
		<circle class="st1" cx="742" cy="85.51" r="1.36"/>
		<circle class="st3" cx="742" cy="85.51" r="0.38"/>
	</g>
	<g>
		<path class="st1" d="M724.67,127.96c0,1.23-0.99,2.22-2.22,2.22c-1.23,0-2.22-0.99-2.22-2.22c0-1.23,0.99-2.22,2.22-2.22
			C723.68,125.74,724.67,126.73,724.67,127.96z"/>
		<circle class="st1" cx="722.45" cy="127.96" r="1.84"/>
		<circle class="st1" cx="722.45" cy="127.96" r="1.36"/>
		<path class="st3" d="M722.83,127.96c0,0.21-0.17,0.38-0.38,0.38c-0.21,0-0.38-0.17-0.38-0.38c0-0.21,0.17-0.38,0.38-0.38
			C722.66,127.58,722.83,127.75,722.83,127.96z"/>
	</g>
	<g>
		<path class="st1" d="M707.22,83.28c0,1.23-0.99,2.22-2.22,2.22s-2.22-0.99-2.22-2.22s0.99-2.22,2.22-2.22
			S707.22,82.06,707.22,83.28z"/>
		<circle class="st1" cx="705" cy="83.28" r="1.84"/>
		<path class="st1" d="M706.36,83.28c0,0.75-0.61,1.36-1.36,1.36c-0.75,0-1.36-0.61-1.36-1.36s0.61-1.36,1.36-1.36
			C705.75,81.92,706.36,82.53,706.36,83.28z"/>
		<path class="st3" d="M705.38,83.28c0,0.21-0.17,0.38-0.38,0.38c-0.21,0-0.38-0.17-0.38-0.38s0.17-0.38,0.38-0.38
			C705.21,82.91,705.38,83.08,705.38,83.28z"/>
	</g>
	<g>
		<path class="st1" d="M593.82,101.16c0,1.23-0.99,2.22-2.22,2.22s-2.22-0.99-2.22-2.22s0.99-2.22,2.22-2.22
			S593.82,99.93,593.82,101.16z"/>
		<circle class="st1" cx="591.6" cy="101.16" r="1.84"/>
		<circle class="st1" cx="591.6" cy="101.16" r="1.36"/>
		<circle class="st3" cx="591.6" cy="101.16" r="0.38"/>
	</g>
	<polygon class="st4" points="478.48,318.05 470.01,318.05 466.15,324.52 	"/>
	
		<radialGradient id="SVGID_2_" cx="361.9116" cy="269.8611" r="111.4392" gradientTransform="matrix(1 0 0 0.7742 0 60.9479)" gradientUnits="userSpaceOnUse">
		<stop  offset="0" style="stop-color:#FBC2FB"/>
		<stop  offset="0.4685" style="stop-color:#C9B7E7"/>
		<stop  offset="1" style="stop-color:#8BA9CF"/>
	</radialGradient>
	<path class="st5" d="M565.88,257.44l-8.11-7.72l-8.92-6.87l-12.72-0.78l-9.76,3.39l-5.64,1.3l-5.22-1.69l-6.08-1.17l-9.47,1.09
		l-16.12-7.73l-17.7-9.21l-7.29,3.65l-8.42,1.66l-7.87,0.7l-7.41,5.7l-13.37,12.59l-17.38,5.94l-16.21,3.22l-6.74,15.5l-11.25,13.7
		l-9.33-10.88l-7.17,2.59l-5.94-2.36l-15.7-16.5l-9.82-4.91l-10.14-2.1l-10.35-10.62l-4.07-4.01l-4.55-2.5l-7.3,4.14l-9.1,7.91
		l-1.97,2.66l-0.8,1.11l-3.99,1.16l-4.88,3.86c0,0-1.44,1.74-2.11,2.63l-0.81,0.61c-3.2,1.43-8.91,5.28-8.91,5.28l-12.42,4.67
		l-16.49,0.85l-18.12,9.65l-14.6-1.94l-16.22-2.59l-5.71-3.2v146.97h396.68V257.72L565.88,257.44z"/>
	
		<radialGradient id="SVGID_3_" cx="371.1296" cy="282.1403" r="130.75" gradientTransform="matrix(1 0 0 0.7658 0 66.0888)" gradientUnits="userSpaceOnUse">
		<stop  offset="0.3259" style="stop-color:#E6B2E7"/>
		<stop  offset="1" style="stop-color:#7E99BB"/>
	</radialGradient>
	<polygon class="st6" points="559.66,279.58 530.26,271.95 509.65,266.56 502.36,269.68 500.52,270.81 496.56,270.68 483.65,267.82 
		471.93,268.01 450.93,261.5 434.03,269.15 420.61,269.85 419.51,284.17 407.33,302.19 373.87,325.95 340.58,300.55 331.01,283.81 
		319.61,289.08 301,277.16 289.55,270.85 277.67,269.67 255.64,266.68 235.41,250.63 227.82,241.67 220.89,233.52 206.76,230.3 
		200.94,239.14 191.67,254.87 169.68,262.95 169.68,392.04 566.36,392.04 566.36,268.98 	"/>
	<linearGradient id="SVGID_4_" gradientUnits="userSpaceOnUse" x1="593.8212" y1="276.7866" x2="637.9856" y2="276.7866">
		<stop  offset="0" style="stop-color:#E6B2E7"/>
		<stop  offset="1" style="stop-color:#7E99BB"/>
	</linearGradient>
	<polygon class="st7" points="636.62,250 625.3,282.25 593.82,303.57 637.99,288.3 	"/>
	
		<radialGradient id="SVGID_5_" cx="375" cy="200.4064" r="421.362" gradientTransform="matrix(1 0 0 0.6129 0 77.5781)" gradientUnits="userSpaceOnUse">
		<stop  offset="0.4045" style="stop-color:#6D5D83"/>
		<stop  offset="0.5679" style="stop-color:#695B80"/>
		<stop  offset="0.7319" style="stop-color:#5D5579"/>
		<stop  offset="0.8956" style="stop-color:#494B6D"/>
		<stop  offset="1" style="stop-color:#384262"/>
	</radialGradient>
	<path class="st8" d="M750,407.13H0V150.46c7.14,0.91,20.04,8.36,20.04,8.36l15.28,1.99l27.63,7.52l10.48,2.62l6.33,0.05l5.43-1.11
		l13.19,17.74l9.5,14.75l5.87,2.4l11.41-1.13l3,2.44l6.98,2.52l15.06,4.3l23.79,3.37l17.82,19.35l13.42,11.96l7.43-1.14l17.05,5.26
		l13.49,21.26l7.4,10.97l19.57,20.63l19.4-0.23l9.81,6.99l15.98-7.4l20.43,13.81l23.64,37.44l20.44,10.03l45.49-46.5l24.91-8.86
		l11.43,8.83l10.91-5.77l20.32,0.65l2.27-24.8l20.55-17.85l11.79-1.54l9.16-4.42l12.62-13.15l3.78-18.7l3.6-8.51l4.81-3.46
		l4.78,1.67l11.89,3.88l17.41-10.8l24.15-18.06l37.22-26.66l10.17-8.62l11.59,6.4l20.62,2.16l13.48-7.95l14.17-6.63
		c0,0,14.96-6.98,22.99-9.37V407.13z"/>
	<text transform="matrix(1 0 0 1 282.2754 129.9729)" class="st9 st10 st11 st12">WELCOME</text>
	<rect x="228.06" y="144.86" class="st13" width="291.62" height="23.69"/>
	<text transform="matrix(1 0 0 1 242.4326 151.1155)" class="st14"><tspan x="0" y="0" class="st15 st10 st16">Lorem ipsum dolor sit amet, consectetur adipiscing elit, sed do eiusmod </tspan><tspan x="36.18" y="10.57" class="st15 st10 st16">tempor incididunt ut labore et dolore magna aliqua.</tspan></text>
	<g class="st14">
		<text transform="matrix(1 0 0 1 341.3696 192.2864)" class="st15 st10 st16 st17">GO TO HOME</text>
		<rect x="330.87" y="178.62" class="st18" width="86" height="20.79"/>
	</g>
	<g class="st14">
		<text transform="matrix(1 0 0 1 148.0676 57.5672)" class="st15 st10 st19 st17">home</text>
		<text transform="matrix(1 0 0 1 508.8443 57.5672)" class="st15 st10 st19 st17">shop</text>
		<text transform="matrix(1 0 0 1 445.3798 57.5672)" class="st15 st10 st19 st17">info</text>
		<text transform="matrix(1 0 0 1 243.3705 57.5672)" class="st15 st10 st19 st17">about us</text>
		<g class="st20">
			<g>
				<g>
					<g>
						<text transform="matrix(1 0 0 1 337.8283 59.0826)"><tspan x="0" y="0" class="st21 st22 st23 st24">log</tspan><tspan x="57.97" y="0" class="st21 st22 st23">o</tspan></text>
					</g>
				</g>
			</g>
		</g>
		<g class="st20">
			<path class="st21" d="M581.8,45.21c-4.34,0-7.86,3.52-7.86,7.86c0,4.34,3.52,7.86,7.86,7.86s7.86-3.52,7.86-7.86
				C589.67,48.74,586.15,45.21,581.8,45.21z M586.89,58.2c-0.35,0.34-0.91,0.34-1.25-0.01l-2.36-2.41c-0.12-0.13-0.2-0.28-0.24-0.45
				c-1.65,1.12-3.92,0.94-5.36-0.53c-1.62-1.66-1.59-4.32,0.07-5.94c1.66-1.62,4.32-1.59,5.94,0.07c1.44,1.47,1.57,3.74,0.42,5.37
				c0.16,0.04,0.32,0.12,0.44,0.24l2.36,2.41C587.25,57.3,587.24,57.86,586.89,58.2z"/>
			<path class="st21" d="M578.97,50.11c-0.97,0.95-0.98,2.5-0.04,3.47c0.94,0.97,2.5,0.98,3.47,0.04c0.97-0.95,0.98-2.5,0.04-3.47
				C581.49,49.18,579.94,49.16,578.97,50.11z"/>
		</g>
	</g>
	<g>
		<polygon class="st4" points="518.88,382.59 514.95,371.76 515.5,371.76 512.39,364.7 512.24,364.31 512.53,364.31 509.44,355.18 
			506.35,364.31 506.64,364.31 506.5,364.7 503.38,371.76 503.93,371.76 500,382.59 		"/>
		<polygon class="st4" points="538.85,382.59 536.1,375.01 536.49,375.01 534.3,370.08 534.21,369.81 534.4,369.81 532.25,363.43 
			530.09,369.81 530.28,369.81 530.19,370.08 528,375.01 528.39,375.01 525.64,382.59 		"/>
		<polygon class="st4" points="559.59,382.59 555.65,371.76 556.21,371.76 553.09,364.7 552.95,364.31 553.23,364.31 550.15,355.18 
			547.06,364.31 547.34,364.31 547.2,364.7 544.08,371.76 544.64,371.76 540.7,382.59 		"/>
		<polygon class="st4" points="579.55,382.59 576.8,375.01 577.19,375.01 575.01,370.08 574.91,369.81 575.11,369.81 572.95,363.43 
			570.79,369.81 570.99,369.81 570.89,370.08 568.71,375.01 569.1,375.01 566.35,382.59 		"/>
		<polygon class="st4" points="590.39,382.59 588.63,377.73 588.88,377.73 587.48,374.56 587.41,374.39 587.54,374.39 
			586.16,370.29 584.77,374.39 584.9,374.39 584.83,374.56 583.43,377.73 583.68,377.73 581.92,382.59 		"/>
		<polygon class="st4" points="480.85,382.59 483.6,375.01 483.21,375.01 485.39,370.08 485.49,369.81 485.29,369.81 487.45,363.43 
			489.61,369.81 489.41,369.81 489.51,370.08 491.69,375.01 491.3,375.01 494.05,382.59 		"/>
		<polygon class="st4" points="470.01,382.59 471.78,377.73 471.53,377.73 472.93,374.56 472.99,374.39 472.86,374.39 
			474.25,370.29 475.63,374.39 475.5,374.39 475.57,374.56 476.97,377.73 476.72,377.73 478.48,382.59 		"/>
		<polygon class="st4" points="440.24,382.59 442,377.73 441.75,377.73 443.15,374.56 443.21,374.39 443.09,374.39 444.47,370.29 
			445.86,374.39 445.73,374.39 445.79,374.56 447.19,377.73 446.94,377.73 448.71,382.59 		"/>
		<polygon class="st4" points="266.27,382.59 270.2,371.76 269.64,371.76 272.76,364.7 272.9,364.31 272.62,364.31 275.71,355.18 
			278.79,364.31 278.51,364.31 278.65,364.7 281.77,371.76 281.22,371.76 285.15,382.59 		"/>
		<polygon class="st4" points="246.3,382.59 249.05,375.01 248.66,375.01 250.84,370.08 250.94,369.81 250.75,369.81 252.9,363.43 
			255.06,369.81 254.86,369.81 254.96,370.08 257.14,375.01 256.75,375.01 259.51,382.59 		"/>
		<polygon class="st4" points="225.56,382.59 229.49,371.76 228.94,371.76 232.06,364.7 232.2,364.31 231.92,364.31 235,355.18 
			238.09,364.31 237.81,364.31 237.95,364.7 241.07,371.76 240.51,371.76 244.45,382.59 		"/>
		<polygon class="st4" points="205.6,382.59 208.35,375.01 207.96,375.01 210.14,370.08 210.24,369.81 210.04,369.81 212.2,363.43 
			214.36,369.81 214.16,369.81 214.26,370.08 216.44,375.01 216.05,375.01 218.8,382.59 		"/>
		<polygon class="st4" points="194.76,382.59 196.52,377.73 196.27,377.73 197.67,374.56 197.74,374.39 197.61,374.39 
			198.99,370.29 200.38,374.39 200.25,374.39 200.31,374.56 201.71,377.73 201.46,377.73 203.23,382.59 		"/>
		<polygon class="st4" points="304.3,382.59 301.55,375.01 301.94,375.01 299.76,370.08 299.66,369.81 299.86,369.81 297.7,363.43 
			295.54,369.81 295.74,369.81 295.64,370.08 293.46,375.01 293.85,375.01 291.1,382.59 		"/>
		<polygon class="st4" points="315.14,382.59 313.37,377.73 313.62,377.73 312.22,374.56 312.16,374.39 312.29,374.39 310.9,370.29 
			309.52,374.39 309.64,374.39 309.58,374.56 308.18,377.73 308.43,377.73 306.67,382.59 		"/>
		<polygon class="st4" points="344.91,382.59 343.15,377.73 343.4,377.73 342,374.56 341.93,374.39 342.06,374.39 340.68,370.29 
			339.29,374.39 339.42,374.39 339.35,374.56 337.95,377.73 338.2,377.73 336.44,382.59 		"/>
		<polygon class="st4" points="414.25,382.59 413.1,379.42 413.26,379.42 412.35,377.35 412.31,377.24 412.39,377.24 411.48,374.56 
			410.58,377.24 410.66,377.24 410.62,377.35 409.71,379.42 409.87,379.42 408.72,382.59 		"/>
		<polygon class="st4" points="625.3,382.59 621.37,371.76 621.93,371.76 618.81,364.7 618.67,364.31 618.95,364.31 615.86,355.18 
			612.78,364.31 613.06,364.31 612.92,364.7 609.8,371.76 610.35,371.76 606.42,382.59 		"/>
		<polygon class="st4" points="645.27,382.59 642.52,375.01 642.91,375.01 640.73,370.08 640.63,369.81 640.82,369.81 
			638.67,363.43 636.51,369.81 636.71,369.81 636.61,370.08 634.43,375.01 634.82,375.01 632.06,382.59 		"/>
		<polygon class="st4" points="666.01,382.59 662.08,371.76 662.63,371.76 659.51,364.7 659.37,364.31 659.65,364.31 656.57,355.18 
			653.48,364.31 653.76,364.31 653.62,364.7 650.5,371.76 651.06,371.76 647.13,382.59 		"/>
		<polygon class="st4" points="685.97,382.59 683.22,375.01 683.61,375.01 681.43,370.08 681.33,369.81 681.53,369.81 
			679.37,363.43 677.21,369.81 677.41,369.81 677.31,370.08 675.13,375.01 675.52,375.01 672.77,382.59 		"/>
		<polygon class="st4" points="737.07,382.59 734.31,375.01 734.7,375.01 732.52,370.08 732.42,369.81 732.62,369.81 730.46,363.43 
			728.31,369.81 728.5,369.81 728.4,370.08 726.22,375.01 726.61,375.01 723.86,382.59 		"/>
		<polygon class="st4" points="696.81,382.59 695.05,377.73 695.3,377.73 693.9,374.56 693.84,374.39 693.96,374.39 692.58,370.29 
			691.19,374.39 691.32,374.39 691.26,374.56 689.86,377.73 690.11,377.73 688.34,382.59 		"/>
		<polygon class="st4" points="719.86,382.59 715.93,371.76 716.48,371.76 713.36,364.7 713.22,364.31 713.5,364.31 710.42,355.18 
			707.33,364.31 707.61,364.31 707.47,364.7 704.35,371.76 704.91,371.76 700.97,382.59 		"/>
		<polygon class="st4" points="26.14,382.59 23.39,375.01 23.78,375.01 21.6,370.08 21.5,369.81 21.69,369.81 19.54,363.43 
			17.38,369.81 17.58,369.81 17.48,370.08 15.3,375.01 15.69,375.01 12.93,382.59 		"/>
		<polygon class="st4" points="46.88,382.59 42.95,371.76 43.5,371.76 40.38,364.7 40.24,364.31 40.52,364.31 37.44,355.18 
			34.35,364.31 34.63,364.31 34.49,364.7 31.37,371.76 31.93,371.76 28,382.59 		"/>
		<polygon class="st4" points="66.84,382.59 64.09,375.01 64.48,375.01 62.3,370.08 62.2,369.81 62.4,369.81 60.24,363.43 
			58.08,369.81 58.28,369.81 58.18,370.08 56,375.01 56.39,375.01 53.64,382.59 		"/>
		<polygon class="st4" points="77.68,382.59 75.92,377.73 76.17,377.73 74.77,374.56 74.7,374.39 74.83,374.39 73.45,370.29 
			72.06,374.39 72.19,374.39 72.13,374.56 70.73,377.73 70.98,377.73 69.21,382.59 		"/>
		<polygon class="st4" points="112.6,382.59 108.66,371.76 109.22,371.76 106.1,364.7 105.96,364.31 106.24,364.31 103.15,355.18 
			100.07,364.31 100.35,364.31 100.21,364.7 97.09,371.76 97.65,371.76 93.71,382.59 		"/>
		<polygon class="st4" points="132.56,382.59 129.81,375.01 130.2,375.01 128.02,370.08 127.92,369.81 128.12,369.81 125.96,363.43 
			123.8,369.81 124,369.81 123.9,370.08 121.72,375.01 122.11,375.01 119.36,382.59 		"/>
		<polygon class="st4" points="153.3,382.59 149.37,371.76 149.92,371.76 146.8,364.7 146.66,364.31 146.95,364.31 143.86,355.18 
			140.77,364.31 141.06,364.31 140.91,364.7 137.79,371.76 138.35,371.76 134.42,382.59 		"/>
		<polygon class="st4" points="173.27,382.59 170.52,375.01 170.9,375.01 168.72,370.08 168.62,369.81 168.82,369.81 166.66,363.43 
			164.51,369.81 164.7,369.81 164.61,370.08 162.42,375.01 162.81,375.01 160.06,382.59 		"/>
		<polygon class="st4" points="184.11,382.59 182.34,377.73 182.59,377.73 181.19,374.56 181.13,374.39 181.25,374.39 
			179.87,370.29 178.48,374.39 178.61,374.39 178.55,374.56 177.15,377.73 177.4,377.73 175.63,382.59 		"/>
	</g>
	<linearGradient id="SVGID_6_" gradientUnits="userSpaceOnUse" x1="583.1365" y1="211.9254" x2="663.2817" y2="211.9254">
		<stop  offset="0" style="stop-color:#E6B2E7"/>
		<stop  offset="1" style="stop-color:#7E99BB"/>
	</linearGradient>
	<polygon class="st25" points="663.28,173.85 583.14,228.07 613.37,228.07 613.37,250 647.13,206.12 655.53,211.93 	"/>
	<linearGradient id="SVGID_7_" gradientUnits="userSpaceOnUse" x1="550.1456" y1="241.9079" x2="566.3571" y2="241.9079">
		<stop  offset="0" style="stop-color:#E6B2E7"/>
		<stop  offset="1" style="stop-color:#7E99BB"/>
	</linearGradient>
	<polygon class="st26" points="559.59,230.3 566.36,238.71 550.15,253.51 	"/>
	<linearGradient id="SVGID_8_" gradientUnits="userSpaceOnUse" x1="499.9979" y1="294.4398" x2="518.8827" y2="294.4398">
		<stop  offset="0" style="stop-color:#E6B2E7"/>
		<stop  offset="1" style="stop-color:#7E99BB"/>
	</linearGradient>
	<polygon class="st27" points="518.88,277.14 500,294.35 500,303.57 506.86,296.87 509.46,311.74 	"/>
	<linearGradient id="SVGID_9_" gradientUnits="userSpaceOnUse" x1="389.7483" y1="340.7372" x2="442.6123" y2="340.7372">
		<stop  offset="0" style="stop-color:#E6B2E7"/>
		<stop  offset="1" style="stop-color:#7E99BB"/>
	</linearGradient>
	<polygon class="st28" points="442.61,318.05 427.46,324.52 389.75,363.43 434.96,334.7 429.29,330.65 	"/>
	<linearGradient id="SVGID_10_" gradientUnits="userSpaceOnUse" x1="172.8832" y1="245.4827" x2="196.5014" y2="245.4827">
		<stop  offset="0" style="stop-color:#7E99BB"/>
		<stop  offset="1" style="stop-color:#E6B2E7"/>
	</linearGradient>
	<polygon class="st29" points="172.88,222.34 196.5,250 194.28,268.62 	"/>
	<linearGradient id="SVGID_11_" gradientUnits="userSpaceOnUse" x1="214.465" y1="270.2057" x2="248.8795" y2="270.2057">
		<stop  offset="0" style="stop-color:#7E99BB"/>
		<stop  offset="1" style="stop-color:#E6B2E7"/>
	</linearGradient>
	<polygon class="st30" points="214.46,253.99 225.56,255.57 248.88,286.42 	"/>
	<linearGradient id="SVGID_12_" gradientUnits="userSpaceOnUse" x1="225.5605" y1="300.689" x2="297.6973" y2="300.689">
		<stop  offset="0" style="stop-color:#7E99BB"/>
		<stop  offset="1" style="stop-color:#E6B2E7"/>
	</linearGradient>
	<polygon class="st31" points="225.56,280.1 252.9,291.96 270.07,304.47 287.65,311.17 297.7,321.28 277.76,318.05 269.05,307.39 
		250.86,303.57 252.9,297.5 	"/>
	<linearGradient id="SVGID_13_" gradientUnits="userSpaceOnUse" x1="304.3248" y1="310.847" x2="335.8072" y2="310.847">
		<stop  offset="0" style="stop-color:#7E99BB"/>
		<stop  offset="1" style="stop-color:#E6B2E7"/>
	</linearGradient>
	<polygon class="st32" points="315.37,303.94 335.81,317.75 304.32,315.35 	"/>
	<linearGradient id="SVGID_14_" gradientUnits="userSpaceOnUse" x1="80.3669" y1="207.5841" x2="147.2182" y2="207.5841">
		<stop  offset="0" style="stop-color:#7E99BB"/>
		<stop  offset="1" style="stop-color:#E6B2E7"/>
	</linearGradient>
	<polygon class="st33" points="80.37,176.46 105.97,205.33 122.3,210.08 143.86,223.92 128.23,219.57 147.22,238.71 98.56,219.97 
		100.15,212.45 	"/>
	<linearGradient id="SVGID_15_" gradientUnits="userSpaceOnUse" x1="91.4985" y1="249.2406" x2="149.5916" y2="249.2406">
		<stop  offset="0" style="stop-color:#7E99BB"/>
		<stop  offset="1" style="stop-color:#E6B2E7"/>
	</linearGradient>
	<polygon class="st34" points="91.5,232.23 142.08,246.88 149.59,266.25 	"/>
	
		<linearGradient id="SVGID_16_" gradientUnits="userSpaceOnUse" x1="375" y1="532.3694" x2="375" y2="415" gradientTransform="matrix(-1 0 0 -1 750 915)">
		<stop  offset="0" style="stop-color:#E6B2E7"/>
		<stop  offset="1" style="stop-color:#7E99BB"/>
	</linearGradient>
	<polygon class="st35" points="0,382.63 750,382.63 750,500 0,500 	"/>
	<g class="st36">
		<g>
			
				<ellipse transform="matrix(0.7071 -0.7071 0.7071 0.7071 -203.9513 385.8556)" class="st1" cx="363.79" cy="439.12" rx="54.38" ry="54.38"/>
			<circle class="st1" cx="363.79" cy="439.12" r="45.07"/>
			
				<ellipse transform="matrix(0.7071 -0.7071 0.7071 0.7071 -203.9513 385.8556)" class="st1" cx="363.79" cy="439.12" rx="33.39" ry="33.39"/>
			
				<ellipse transform="matrix(0.1567 -0.9876 0.9876 0.1567 -126.9045 729.6124)" class="st21" cx="363.79" cy="439.12" rx="25.92" ry="25.92"/>
		</g>
		
			<radialGradient id="SVGID_17_" cx="373.2034" cy="242.1214" r="199.1897" gradientTransform="matrix(1 0 0 -0.2312 0 508.5929)" gradientUnits="userSpaceOnUse">
			<stop  offset="0" style="stop-color:#FBC2FB"/>
			<stop  offset="0.1575" style="stop-color:#F1C0F7"/>
			<stop  offset="0.421" style="stop-color:#D8BAED"/>
			<stop  offset="0.756" style="stop-color:#AEB1DD"/>
			<stop  offset="1" style="stop-color:#8BA9CF"/>
		</radialGradient>
		<path class="st37" d="M566.36,382.14v62.4l-0.48,0.14l-8.11,3.87l-8.92,3.44l-12.72,0.39l-9.76-1.7l-5.64-0.65l-5.22,0.85
			l-6.08,0.59l-9.47-0.55l-16.12,3.88l-17.7,4.62l-7.29-1.83l-8.42-0.83l-7.87-0.35l-7.41-2.86l-13.37-6.32l-17.38-2.98l-16.21-1.61
			l-6.74-7.77l-11.25-6.87l-9.33,5.46l-7.17-1.3l-5.94,1.18l-15.7,8.28l-9.82,2.46l-10.14,1.05l-10.35,5.33l-4.07,2.01l-4.55,1.25
			l-7.3-2.08l-9.1-3.97l-1.97-1.33l-0.8-0.56l-3.99-0.58l-4.88-1.94c0,0-1.44-0.87-2.11-1.32l-0.81-0.31
			c-3.2-0.72-8.91-2.65-8.91-2.65l-12.42-2.34l-16.49-0.43l-18.12-4.84l-14.6,0.97l-16.22,1.3l-5.71,1.6v-53.13H566.36z"/>
		
			<radialGradient id="SVGID_18_" cx="371.1296" cy="282.6329" r="130.7517" gradientTransform="matrix(1 0 0 -0.384 0 540.8345)" gradientUnits="userSpaceOnUse">
			<stop  offset="0.3259" style="stop-color:#E6B2E7"/>
			<stop  offset="1" style="stop-color:#7E99BB"/>
		</radialGradient>
		<polygon class="st38" points="566.36,382.14 566.36,438.89 559.66,433.58 530.26,437.41 509.65,440.11 502.36,438.54 
			500.52,437.98 496.56,438.04 483.65,439.48 471.93,439.38 450.93,442.65 434.03,438.81 420.61,438.46 419.51,431.28 
			407.33,422.24 373.87,410.32 340.58,423.06 331.01,431.46 319.61,428.81 301,434.79 289.55,437.96 277.67,438.55 255.64,440.05 
			235.41,448.1 227.82,452.59 220.89,456.68 206.76,458.29 200.94,453.86 191.67,445.97 169.68,441.92 169.68,382.14 		"/>
		
			<radialGradient id="SVGID_19_" cx="375" cy="200.8943" r="421.3672" gradientTransform="matrix(1 0 0 -0.3074 0 535.0358)" gradientUnits="userSpaceOnUse">
			<stop  offset="0.4045" style="stop-color:#6D5D83"/>
			<stop  offset="0.5679" style="stop-color:#695B80"/>
			<stop  offset="0.7319" style="stop-color:#5D5579"/>
			<stop  offset="0.8956" style="stop-color:#494B6D"/>
			<stop  offset="1" style="stop-color:#384262"/>
		</radialGradient>
		<path class="st39" d="M750,382.14V500c-8.04-1.2-22.99-4.7-22.99-4.7l-14.17-3.32l-13.48-3.99l-20.62,1.09l-11.59,3.21
			l-10.17-4.32l-37.22-13.37l-24.15-9.06l-17.41-5.42l-11.89,1.95l-4.78,0.84l-4.81-1.74l-3.6-4.27l-3.78-9.38l-12.62-6.6
			l-9.16-2.22l-11.79-0.77l-20.55-8.95l-2.27-12.44l-20.32,0.33l-10.91-2.9l-11.43,4.43l-24.91-4.45l-45.49-23.32l-20.44,5.03
			l-23.64,18.78l-20.43,6.93l-15.98-3.71l-9.81,3.51l-19.4-0.12l-19.57,10.35l-7.4,5.5l-13.49,10.66l-17.05,2.64l-7.43-0.57
			l-13.42,6L174,465.33l-23.79,1.69l-15.06,2.16l-6.98,1.27l-3,1.22l-11.41-0.57l-5.87,1.2l-9.5,7.4l-13.19,8.9l-5.43-0.56
			l-6.33,0.03l-10.48,1.31l-27.63,3.77l-15.28,1c0,0-12.9,3.73-20.04,4.19v-116.2H750z"/>
	</g>
	<g class="st36">
		<polygon class="st4" points="518.88,382.59 514.95,387.43 515.5,387.43 512.39,390.58 512.24,390.76 512.53,390.76 509.44,394.83 
			506.35,390.76 506.64,390.76 506.5,390.58 503.38,387.43 503.93,387.43 500,382.59 		"/>
		<polygon class="st4" points="538.85,382.59 536.1,385.97 536.49,385.97 534.3,388.18 534.21,388.3 534.4,388.3 532.25,391.15 
			530.09,388.3 530.28,388.3 530.19,388.18 528,385.97 528.39,385.97 525.64,382.59 		"/>
		<polygon class="st4" points="559.59,382.59 555.65,387.43 556.21,387.43 553.09,390.58 552.95,390.76 553.23,390.76 
			550.15,394.83 547.06,390.76 547.34,390.76 547.2,390.58 544.08,387.43 544.64,387.43 540.7,382.59 		"/>
		<polygon class="st4" points="579.55,382.59 576.8,385.97 577.19,385.97 575.01,388.18 574.91,388.3 575.11,388.3 572.95,391.15 
			570.79,388.3 570.99,388.3 570.89,388.18 568.71,385.97 569.1,385.97 566.35,382.59 		"/>
		<polygon class="st4" points="590.39,382.59 588.63,384.76 588.88,384.76 587.48,386.18 587.41,386.25 587.54,386.25 
			586.16,388.08 584.77,386.25 584.9,386.25 584.83,386.18 583.43,384.76 583.68,384.76 581.92,382.59 		"/>
		<polygon class="st4" points="480.85,382.59 483.6,385.97 483.21,385.97 485.39,388.18 485.49,388.3 485.29,388.3 487.45,391.15 
			489.61,388.3 489.41,388.3 489.51,388.18 491.69,385.97 491.3,385.97 494.05,382.59 		"/>
		<polygon class="st4" points="470.01,382.59 471.78,384.76 471.53,384.76 472.93,386.18 472.99,386.25 472.86,386.25 
			474.25,388.08 475.63,386.25 475.5,386.25 475.57,386.18 476.97,384.76 476.72,384.76 478.48,382.59 		"/>
		<polygon class="st4" points="440.24,382.59 442,384.76 441.75,384.76 443.15,386.18 443.21,386.25 443.09,386.25 444.47,388.08 
			445.86,386.25 445.73,386.25 445.79,386.18 447.19,384.76 446.94,384.76 448.71,382.59 		"/>
		<polygon class="st4" points="266.27,382.59 270.2,387.43 269.64,387.43 272.76,390.58 272.9,390.76 272.62,390.76 275.71,394.83 
			278.79,390.76 278.51,390.76 278.65,390.58 281.77,387.43 281.22,387.43 285.15,382.59 		"/>
		<polygon class="st4" points="246.3,382.59 249.05,385.97 248.66,385.97 250.84,388.18 250.94,388.3 250.75,388.3 252.9,391.15 
			255.06,388.3 254.86,388.3 254.96,388.18 257.14,385.97 256.75,385.97 259.51,382.59 		"/>
		<polygon class="st4" points="225.56,382.59 229.49,387.43 228.94,387.43 232.06,390.58 232.2,390.76 231.92,390.76 235,394.83 
			238.09,390.76 237.81,390.76 237.95,390.58 241.07,387.43 240.51,387.43 244.45,382.59 		"/>
		<polygon class="st4" points="205.6,382.59 208.35,385.97 207.96,385.97 210.14,388.18 210.24,388.3 210.04,388.3 212.2,391.15 
			214.36,388.3 214.16,388.3 214.26,388.18 216.44,385.97 216.05,385.97 218.8,382.59 		"/>
		<polygon class="st4" points="194.76,382.59 196.52,384.76 196.27,384.76 197.67,386.18 197.74,386.25 197.61,386.25 
			198.99,388.08 200.38,386.25 200.25,386.25 200.31,386.18 201.71,384.76 201.46,384.76 203.23,382.59 		"/>
		<polygon class="st4" points="304.3,382.59 301.55,385.97 301.94,385.97 299.76,388.18 299.66,388.3 299.86,388.3 297.7,391.15 
			295.54,388.3 295.74,388.3 295.64,388.18 293.46,385.97 293.85,385.97 291.1,382.59 		"/>
		<polygon class="st4" points="315.14,382.59 313.37,384.76 313.62,384.76 312.22,386.18 312.16,386.25 312.29,386.25 310.9,388.08 
			309.52,386.25 309.64,386.25 309.58,386.18 308.18,384.76 308.43,384.76 306.67,382.59 		"/>
		<polygon class="st4" points="344.91,382.59 343.15,384.76 343.4,384.76 342,386.18 341.93,386.25 342.06,386.25 340.68,388.08 
			339.29,386.25 339.42,386.25 339.35,386.18 337.95,384.76 338.2,384.76 336.44,382.59 		"/>
		<polygon class="st4" points="414.25,382.59 413.1,384.01 413.26,384.01 412.35,384.93 412.31,384.98 412.39,384.98 411.48,386.18 
			410.58,384.98 410.66,384.98 410.62,384.93 409.71,384.01 409.87,384.01 408.72,382.59 		"/>
		<polygon class="st4" points="625.3,382.59 621.37,387.43 621.93,387.43 618.81,390.58 618.67,390.76 618.95,390.76 615.86,394.83 
			612.78,390.76 613.06,390.76 612.92,390.58 609.8,387.43 610.35,387.43 606.42,382.59 		"/>
		<polygon class="st4" points="645.27,382.59 642.52,385.97 642.91,385.97 640.73,388.18 640.63,388.3 640.82,388.3 638.67,391.15 
			636.51,388.3 636.71,388.3 636.61,388.18 634.43,385.97 634.82,385.97 632.06,382.59 		"/>
		<polygon class="st4" points="666.01,382.59 662.08,387.43 662.63,387.43 659.51,390.58 659.37,390.76 659.65,390.76 
			656.57,394.83 653.48,390.76 653.76,390.76 653.62,390.58 650.5,387.43 651.06,387.43 647.13,382.59 		"/>
		<polygon class="st4" points="685.97,382.59 683.22,385.97 683.61,385.97 681.43,388.18 681.33,388.3 681.53,388.3 679.37,391.15 
			677.21,388.3 677.41,388.3 677.31,388.18 675.13,385.97 675.52,385.97 672.77,382.59 		"/>
		<polygon class="st4" points="737.07,382.59 734.31,385.97 734.7,385.97 732.52,388.18 732.42,388.3 732.62,388.3 730.46,391.15 
			728.31,388.3 728.5,388.3 728.4,388.18 726.22,385.97 726.61,385.97 723.86,382.59 		"/>
		<polygon class="st4" points="696.81,382.59 695.05,384.76 695.3,384.76 693.9,386.18 693.84,386.25 693.96,386.25 692.58,388.08 
			691.19,386.25 691.32,386.25 691.26,386.18 689.86,384.76 690.11,384.76 688.34,382.59 		"/>
		<polygon class="st4" points="719.86,382.59 715.93,387.43 716.48,387.43 713.36,390.58 713.22,390.76 713.5,390.76 710.42,394.83 
			707.33,390.76 707.61,390.76 707.47,390.58 704.35,387.43 704.91,387.43 700.97,382.59 		"/>
		<polygon class="st4" points="26.14,382.59 23.39,385.97 23.78,385.97 21.6,388.18 21.5,388.3 21.69,388.3 19.54,391.15 
			17.38,388.3 17.58,388.3 17.48,388.18 15.3,385.97 15.69,385.97 12.93,382.59 		"/>
		<polygon class="st4" points="46.88,382.59 42.95,387.43 43.5,387.43 40.38,390.58 40.24,390.76 40.52,390.76 37.44,394.83 
			34.35,390.76 34.63,390.76 34.49,390.58 31.37,387.43 31.93,387.43 28,382.59 		"/>
		<polygon class="st4" points="66.84,382.59 64.09,385.97 64.48,385.97 62.3,388.18 62.2,388.3 62.4,388.3 60.24,391.15 
			58.08,388.3 58.28,388.3 58.18,388.18 56,385.97 56.39,385.97 53.64,382.59 		"/>
		<polygon class="st4" points="77.68,382.59 75.92,384.76 76.17,384.76 74.77,386.18 74.7,386.25 74.83,386.25 73.45,388.08 
			72.06,386.25 72.19,386.25 72.13,386.18 70.73,384.76 70.98,384.76 69.21,382.59 		"/>
		<polygon class="st4" points="112.6,382.59 108.66,387.43 109.22,387.43 106.1,390.58 105.96,390.76 106.24,390.76 103.15,394.83 
			100.07,390.76 100.35,390.76 100.21,390.58 97.09,387.43 97.65,387.43 93.71,382.59 		"/>
		<polygon class="st4" points="132.56,382.59 129.81,385.97 130.2,385.97 128.02,388.18 127.92,388.3 128.12,388.3 125.96,391.15 
			123.8,388.3 124,388.3 123.9,388.18 121.72,385.97 122.11,385.97 119.36,382.59 		"/>
		<polygon class="st4" points="153.3,382.59 149.37,387.43 149.92,387.43 146.8,390.58 146.66,390.76 146.95,390.76 143.86,394.83 
			140.77,390.76 141.06,390.76 140.91,390.58 137.79,387.43 138.35,387.43 134.42,382.59 		"/>
		<polygon class="st4" points="173.27,382.59 170.52,385.97 170.9,385.97 168.72,388.18 168.62,388.3 168.82,388.3 166.66,391.15 
			164.51,388.3 164.7,388.3 164.61,388.18 162.42,385.97 162.81,385.97 160.06,382.59 		"/>
		<polygon class="st4" points="184.11,382.59 182.34,384.76 182.59,384.76 181.19,386.18 181.13,386.25 181.25,386.25 
			179.87,388.08 178.48,386.25 178.61,386.25 178.55,386.18 177.15,384.76 177.4,384.76 175.63,382.59 		"/>
	</g>
</g>
<g id="designed_by_freepik">
	<g>
		<g id="XMLID_29_">
			<g id="XMLID_48_">
				<path id="XMLID_56_" class="st40" d="M673.43,476.14c-0.43,0.44-0.8,0.93-1.11,1.45l-0.47-0.24c-0.07-0.3-0.35-0.5-0.66-0.47
					c-0.33,0.04-0.57,0.34-0.53,0.67c0.04,0.33,0.34,0.57,0.67,0.53c0.07-0.01,0.13-0.03,0.18-0.05l0.45,0.23
					c-0.25,0.55-0.43,1.14-0.54,1.74l0.75,0.13c0.23-1.31,0.85-2.51,1.79-3.47L673.43,476.14z"/>
				<path id="XMLID_55_" class="st40" d="M678.91,473.84c-0.17,0-0.34,0.01-0.51,0.02l-0.07-0.63c0.19-0.15,0.3-0.39,0.27-0.64
					c-0.05-0.39-0.4-0.67-0.8-0.63c-0.39,0.05-0.67,0.4-0.63,0.8c0.03,0.25,0.19,0.46,0.4,0.56l0.07,0.62
					c-0.71,0.12-1.4,0.33-2.06,0.65l0.33,0.68c0.93-0.45,1.94-0.67,3-0.67c0.5,0,0.99,0.05,1.47,0.16l0.16-0.74
					C680.01,473.9,679.46,473.84,678.91,473.84z"/>
				<path id="XMLID_54_" class="st40" d="M685.52,476.39c0.33-0.04,0.57-0.34,0.53-0.67c-0.04-0.33-0.34-0.57-0.67-0.53
					c-0.31,0.04-0.54,0.3-0.53,0.61l-0.42,0.36c-0.42-0.43-0.89-0.81-1.41-1.14l-0.4,0.64c1.13,0.71,2.02,1.73,2.56,2.93l0.69-0.31
					c-0.25-0.55-0.57-1.07-0.94-1.55l0.4-0.35C685.39,476.39,685.45,476.39,685.52,476.39z"/>
				<path id="XMLID_53_" class="st40" d="M678.37,484.05c-0.39,0.02-0.78,0.03-1.16,0.03c-0.88,0-1.73-0.06-2.48-0.18
					c-0.39-0.06-0.85-0.15-1.27-0.29c1.05,1.86,3.07,3.13,5.39,3.13c2.86,0,5.26-1.92,5.95-4.5c-0.68,0.45-1.51,0.83-2.46,1.12
					C681.16,483.72,679.78,483.96,678.37,484.05z"/>
				<path id="XMLID_49_" class="st40" d="M678.91,475.36c-3.35,0-6.08,2.67-6.08,5.94c0,0.43,0.05,0.85,0.14,1.26
					c0.67,0.48,2.71,0.89,5.35,0.73c2.88-0.17,5.3-0.96,6.67-2.16c-0.01-0.19-0.02-0.39-0.05-0.58
					C684.56,477.59,681.97,475.36,678.91,475.36z M676.75,481.87c-1.02,0-1.85-0.83-1.85-1.85c0-1.02,0.83-1.85,1.85-1.85
					c1.02,0,1.85,0.83,1.85,1.85C678.6,481.04,677.77,481.87,676.75,481.87z M681.49,480.96c-0.75,0-1.36-0.61-1.36-1.36
					s0.61-1.36,1.36-1.36c0.75,0,1.36,0.61,1.36,1.36S682.24,480.96,681.49,480.96z"/>
			</g>
			<path id="XMLID_46_" class="st40" d="M694.92,477.22c-0.29-0.12-0.81-0.31-1.38-0.24c-0.55,0.07-0.84,0.34-0.84,1.01v0.87h2.23
				v1.72h-2.23v5.45h-1.93v-5.45h-1.34v-1.72h1.34v-0.89c0-1.68,0.9-2.78,2.57-2.78c0.64,0,1.16,0.12,1.59,0.31L694.92,477.22z"/>
			<path id="XMLID_44_" class="st40" d="M699.62,480.55c-0.18-0.03-0.36-0.05-0.53-0.05c-0.9,0-1.51,0.55-1.51,1.61v3.91h-1.93
				v-7.17h1.87v0.78c0.45-0.67,1.14-0.98,2.02-0.98c0.41,0,0.85,0.13,1.09,0.34L699.62,480.55z"/>
			<path id="XMLID_41_" class="st40" d="M707.29,482.43c0,0.22-0.01,0.49-0.04,0.65h-5.08c0.21,1.04,0.93,1.49,1.84,1.49
				c0.62,0,1.3-0.25,1.81-0.69l1.13,1.24c-0.81,0.75-1.85,1.09-3.06,1.09c-2.2,0-3.72-1.5-3.72-3.75c0-2.26,1.48-3.8,3.63-3.8
				C705.87,478.67,707.28,480.2,707.29,482.43z M702.17,481.77h3.18c-0.18-0.92-0.73-1.44-1.56-1.44
				C702.87,480.33,702.34,480.88,702.17,481.77z"/>
			<path id="XMLID_38_" class="st40" d="M714.94,482.43c0,0.22-0.02,0.49-0.04,0.65h-5.08c0.21,1.04,0.93,1.49,1.84,1.49
				c0.62,0,1.3-0.25,1.81-0.69l1.13,1.24c-0.81,0.75-1.85,1.09-3.06,1.09c-2.2,0-3.72-1.5-3.72-3.75c0-2.26,1.48-3.8,3.63-3.8
				C713.52,478.67,714.93,480.2,714.94,482.43z M709.83,481.77H713c-0.18-0.92-0.73-1.44-1.56-1.44
				C710.53,480.33,710,480.88,709.83,481.77z"/>
			<path id="XMLID_35_" class="st40" d="M723.29,482.44c0,2.15-1.49,3.77-3.47,3.77c-0.96,0-1.64-0.38-2.11-0.93v3.71h-1.92v-10.13
				h1.89v0.79c0.47-0.58,1.15-0.98,2.14-0.98C721.79,478.67,723.29,480.29,723.29,482.44z M717.61,482.44
				c0,1.13,0.75,1.98,1.84,1.98c1.14,0,1.85-0.88,1.85-1.98c0-1.1-0.71-1.98-1.85-1.98C718.36,480.46,717.61,481.31,717.61,482.44z"
				/>
			<path id="XMLID_32_" class="st40" d="M726.39,476.51c0,0.7-0.54,1.23-1.24,1.23c-0.7,0-1.23-0.53-1.23-1.23
				c0-0.7,0.53-1.24,1.23-1.24C725.85,475.27,726.39,475.82,726.39,476.51z M726.13,486.03h-1.93v-7.17h1.93V486.03z"/>
			<path id="XMLID_30_" class="st40" d="M729.35,481.41l2.7-2.55h2.37l-3.48,3.38l3.5,3.8h-2.38l-2.72-2.9v2.9h-1.93v-10.66h1.93
				V481.41z"/>
		</g>
		<g>
			<path class="st40" d="M597.73,485.96v-1.05c-0.53,0.72-1.39,1.23-2.39,1.23c-1.85,0-3.15-1.41-3.15-3.71
				c0-2.26,1.29-3.72,3.15-3.72c0.95,0,1.82,0.47,2.39,1.25v-3.76h1.1v9.77H597.73z M597.73,484.05v-3.21
				c-0.4-0.62-1.24-1.14-2.12-1.14c-1.42,0-2.27,1.17-2.27,2.74c0,1.57,0.85,2.72,2.27,2.72
				C596.49,485.16,597.34,484.66,597.73,484.05z"/>
			<path class="st40" d="M600.25,482.42c0-2.05,1.46-3.71,3.49-3.71c2.14,0,3.4,1.67,3.4,3.79v0.28h-5.73
				c0.09,1.33,1.03,2.45,2.55,2.45c0.81,0,1.63-0.32,2.18-0.89l0.53,0.72c-0.7,0.7-1.65,1.08-2.81,1.08
				C601.76,486.14,600.25,484.63,600.25,482.42z M603.72,479.62c-1.51,0-2.26,1.27-2.31,2.36h4.64
				C606.04,480.93,605.34,479.62,603.72,479.62z"/>
			<path class="st40" d="M607.93,485.03l0.57-0.79c0.47,0.54,1.36,1.01,2.33,1.01c1.08,0,1.67-0.51,1.67-1.22
				c0-1.71-4.38-0.66-4.38-3.28c0-1.1,0.95-2.04,2.64-2.04c1.2,0,2.05,0.45,2.62,1.03l-0.51,0.76c-0.42-0.51-1.2-0.89-2.11-0.89
				c-0.97,0-1.57,0.48-1.57,1.11c0,1.55,4.38,0.53,4.38,3.28c0,1.19-0.95,2.14-2.78,2.14C609.63,486.14,608.65,485.79,607.93,485.03
				z"/>
			<path class="st40" d="M614.8,477.15c0-0.41,0.34-0.75,0.73-0.75c0.41,0,0.75,0.34,0.75,0.75c0,0.41-0.34,0.73-0.75,0.73
				C615.14,477.88,614.8,477.56,614.8,477.15z M614.99,485.96v-7.07h1.1v7.07H614.99z"/>
			<path class="st40" d="M617.9,487.78l0.56-0.82c0.59,0.7,1.29,0.97,2.3,0.97c1.17,0,2.27-0.57,2.27-2.12v-1.01
				c-0.51,0.72-1.38,1.26-2.37,1.26c-1.85,0-3.15-1.38-3.15-3.66c0-2.27,1.29-3.68,3.15-3.68c0.95,0,1.8,0.47,2.37,1.25v-1.07h1.1
				v6.87c0,2.34-1.64,3.08-3.37,3.08C619.56,488.84,618.74,488.6,617.9,487.78z M623.03,483.93v-3.09
				c-0.38-0.62-1.23-1.14-2.11-1.14c-1.42,0-2.27,1.13-2.27,2.7c0,1.55,0.85,2.7,2.27,2.7C621.8,485.09,622.65,484.54,623.03,483.93
				z"/>
			<path class="st40" d="M630.73,485.96v-4.63c0-1.24-0.63-1.64-1.58-1.64c-0.86,0-1.68,0.53-2.09,1.1v5.17h-1.1v-7.07h1.1v1.03
				c0.5-0.59,1.46-1.2,2.52-1.2c1.48,0,2.26,0.75,2.26,2.29v4.97H630.73z"/>
			<path class="st40" d="M633.25,482.42c0-2.05,1.46-3.71,3.49-3.71c2.14,0,3.4,1.67,3.4,3.79v0.28h-5.73
				c0.09,1.33,1.03,2.45,2.55,2.45c0.81,0,1.63-0.32,2.18-0.89l0.53,0.72c-0.7,0.7-1.66,1.08-2.81,1.08
				C634.76,486.14,633.25,484.63,633.25,482.42z M636.73,479.62c-1.51,0-2.26,1.27-2.31,2.36h4.64
				C639.04,480.93,638.34,479.62,636.73,479.62z"/>
			<path class="st40" d="M646.67,485.96v-1.05c-0.53,0.72-1.39,1.23-2.39,1.23c-1.85,0-3.15-1.41-3.15-3.71
				c0-2.26,1.29-3.72,3.15-3.72c0.95,0,1.82,0.47,2.39,1.25v-3.76h1.1v9.77H646.67z M646.67,484.05v-3.21
				c-0.4-0.62-1.25-1.14-2.12-1.14c-1.42,0-2.27,1.17-2.27,2.74c0,1.57,0.85,2.72,2.27,2.72
				C645.43,485.16,646.28,484.66,646.67,484.05z"/>
			<path class="st40" d="M653.01,485.96v-9.77h1.1v3.76c0.57-0.78,1.42-1.25,2.39-1.25c1.85,0,3.15,1.46,3.15,3.72
				c0,2.3-1.3,3.71-3.15,3.71c-1,0-1.86-0.51-2.39-1.23v1.05H653.01z M656.22,485.16c1.44,0,2.29-1.16,2.29-2.72
				c0-1.57-0.85-2.74-2.29-2.74c-0.86,0-1.73,0.53-2.11,1.14v3.21C654.49,484.66,655.36,485.16,656.22,485.16z"/>
			<path class="st40" d="M660.85,487.74c0.16,0.07,0.42,0.12,0.6,0.12c0.48,0,0.81-0.16,1.05-0.75l0.47-1.07l-2.96-7.15h1.19
				l2.36,5.8l2.34-5.8h1.2l-3.54,8.51c-0.42,1.03-1.14,1.42-2.08,1.44c-0.23,0-0.6-0.04-0.81-0.1L660.85,487.74z"/>
		</g>
	</g>
</g>
</svg>
